/* XPM */
static char *_6cef75496df4ddec19ba64d4cb7347bXZ4YjdmdZ3mhsiYC[] = {
/* columns rows colors chars-per-pixel */
"64 64 18 1 ",
"  c None",
". c #203965",
"X c #045943",
"o c #21A633",
"O c #28C73D",
"+ c #0E8C45",
"@ c #078060",
"# c #1B2287",
"$ c #212AA6",
"% c #363FBC",
"& c #3A6D87",
"* c #3868BA",
"= c #588DBE",
"- c #5A89DA",
"; c #52A3CC",
": c #6CAFEC",
"> c #E3E6FF",
", c white",
/* pixels */
"                                                                ",
"                                                                ",
"                                                                ",
"                                                                ",
"                                                                ",
"                                                                ",
"                                                                ",
"                                                                ",
"                           ...........                          ",
"                      .....,,,,,,,,,,,.....                     ",
"                    ..,,,,,>>>>>>>>>>>,----..                   ",
"                  ..@>>X>>>>>>>>>>>>>$$****--..                 ",
"                 .@@XXX+X>>X>>>>$>>$$********--.                ",
"                .@XX+++++XX+XXX$*$$************-.               ",
"               .@XX++++++*+++*******************-.              ",
"              .@XX++++++*************************-.             ",
"             .@XX++*+++**************;*;;;*;******-.            ",
"            .@XXX++**+*************;OO;O;OO;;*;****-.           ",
"           .@XXX+++***************;OOOOOOOOO;;;;****-.          ",
"          .@XXXX++++********>***>>OOOOOOOOOO;;;;;****-.         ",
"          .@XXXXX++******>*>>*>>;>>OOOOOOOO;;;;;;*****-.        ",
"         .:==X=X+++*****>>>>>>>>>>>>OOOOOOOO;;;;;;****-.        ",
"         .:=====++***>*>>>>>>>>>>>>>>OOOOOOO;;;OO;;***-.        ",
"        .:======++*>>>>>>>>>>>>>>>>>OOOOOOO;;OOOOO;;***-.       ",
"       .:=======>+>>>>>>>>>>>>>>>>>oOOOOOOOOOOOOO;;*****-.      ",
"       .:=======>>>>>>>>>>>>>>>>>>>ooOOOOOOOOOOOOO;;****-.      ",
"      .:========>>>>>>>>>>>>>>>>>>>>oooOOOOOOOOOO;;*****>,.     ",
"      .:=========>>>>>>>>>>>>>>>>>>>oooooOOOOOOOO;;;**>>>,.     ",
"      .:========>>>>>>>>>>>>>>>>>>>XoooooooOOOOO;;;;*>>>>,.     ",
"     .:=========>>>>>>>>>>>>>>>>>>Xoo;o;;oooOOO;;;>*>>>>>>,.    ",
"     .:=====#===>>>>>>>>>>>>X>>$$&;;;;;;;;;ooooO;>>>>>>>>>,.    ",
"     .:=#==#$#===>>>>>>>>>>X+X$****;;;;;;;oooooo;;>>>>>>>>,.    ",
"     .%#$##$$$#=>>>X>>>>>>>>*******;;;;;;;;oooooo>>>>>>>>>,.    ",
"     .%$$$$$$$$#>>X+$$>>$>>>>********;;;;;;;oooo>>>>>>>>>>,.    ",
"     .%$$$$$$$$$#X+***$$*XXXX*********;;;;;;ooooo>>>>>>>>>,.    ",
"     .%$$$$$$$$=*********++ooo*********;*;;;;;ooo*>>>>>>>>,.    ",
"     .%$$$$$$$$===>*******++ooo**********;*;*;*o*>>>>>>>>>,.    ",
"     .%$$$$$$$$===>>******+++ooo****************>>>>>>>$>+o.    ",
"     .%$$$$$$$$===$$*******++oo>***************>>>>>>>$*$*o.    ",
"     .%$$$$$$$$$===>********++>$o**************>>>>>>$****o.    ",
"      .%$$$$$$$$##>>>***o***>>$oo******>********>>>>$****-.     ",
"      .%$$$$$$$$$$###***oo**$$oooo*****>>*******$>$$*****-.     ",
"      .%$$$$$=$$$$$******oo**oooo*****>>>********$*******-.     ",
"       .%$$$X==XX$$$$***+ooooooooooo*>>>>***************-.      ",
"       .%$$$X===X$$$*****+++ooooooo>>>>>>>**************-.      ",
"        .%$$XX====$===>>**++>>>o>>>>>>>>>>**************-.      ",
"         .%$X========>>>>>>>>>>>>>>>>>>>>**************-.       ",
"         .%$$X========>>>>>>>>>>>>>>>>>>>>*************-.       ",
"         .%$$$#=========>>>>>>>>>>>>>>>>>>>***********-.        ",
"          .%$$$#=======>>>>>>>>>>>>>>>>>>>>**********-.         ",
"           .$$$$#=======>>>>>>>>>>>>>>>>>>$*********-.          ",
"           .%%$$$#=======>>>>>>>>>>>>>>>>$**********-.          ",
"            ..%$$$#=======>=>>>###>>>#>>$*********-..           ",
"              .%$$$##===#=====#$+$+##*##**$***$**-.             ",
"               .%$$$$#=#$##==#$XXXXX$$$$$$$$$$$$%.              ",
"                .%%$$$#$$$$##X$XXXXXX$$$$$$$$$%%.               ",
"                 ..%%$XX$XXXXXXXXXXXX$X$$$$$%%..                ",
"                   ..@XXXXXXXXXXXXXXXXXX$$$%..                  ",
"                     .@@@@@XXXXXXXXXXX@@@%%.                    ",
"                      .....@@@@@@@@@@@.....                     ",
"                           ...........                          ",
"                                                                ",
"                                                                ",
"                                                                "
};
