/* XPM */
static char *_32f60c3d26f44fbd6839541d8abc00aWKiR5YIorPeMtmPB[] = {
/* columns rows colors chars-per-pixel */
"36 32 53 1 ",
"  c None",
". c #0F0913",
"X c #0B0C11",
"o c #0B0E13",
"O c #0E0D12",
"+ c #210B00",
"@ c #181822",
"# c #181B24",
"$ c #1E2128",
"% c #252531",
"& c #252831",
"* c #272936",
"= c #292D36",
"- c #411500",
"; c #531B00",
": c #5E1E00",
"> c #383C47",
", c #3A3D46",
"< c #3F414E",
"1 c #43434F",
"2 c #414350",
"3 c #434551",
"4 c #484B54",
"5 c #54545E",
"6 c #54595B",
"7 c #626470",
"8 c #646871",
"9 c #656972",
"0 c #666A73",
"q c #666874",
"w c #676B74",
"e c #676E76",
"r c #686C75",
"t c #6A707C",
"y c #912E00",
"u c #FF5200",
"i c #E7722F",
"p c #FF8500",
"a c #FFAC00",
"s c #FFB941",
"d c #FF9E68",
"f c #81858E",
"g c #868A93",
"h c #858E93",
"j c #888B9A",
"k c #8D919A",
"l c #999CA3",
"z c #A8AEAC",
"x c #A9ADB6",
"c c #ABB3B5",
"v c #BCBCBC",
"b c gray79",
"n c #FDFDFD",
/* pixels */
"                XXXX                ",
"               *4cc4*               ",
"              .4x--x4X              ",
"              Xj-yy-jX              ",
"              Xj:yy:jX              ",
"              XxyiiyxX              ",
"             X*xyssyx*X             ",
"             X2jyssyj2X             ",
"             Xj0yssy0jX             ",
"            X*j-yddy-j*X            ",
"            X*j-yiiy-j*X            ",
"            X*j-:yy:-j*X            ",
"            X*jj-::-jj*X            ",
"            X*3j@%%@j3*X            ",
"           X*=**@77@**&*X           ",
"     XX   X,wh*@%77%@*hg,X   XX     ",
"    XhhX X*6hv1@%77%@1vh6*X XhhX    ",
"    O5hlXX*6hv1@%77%@1vh6*XXlh5O    ",
"   O55rllX*6hv1@@77@@1vh6*Xll055O   ",
"   X5550llX*eh1@,@@,@1he*Xll0555X   ",
"   X5555lllX*h1@7fk7@1h*Xlll5555X   ",
"  X,,,555ll0X*,@7zz7@,*X0ll555,,,X  ",
"  X,,,,555ll0XX*tbbt*XX0ll555,,,,X  ",
"  X,,yyy;55ll0@*tnnt*@0ll55;yyy,,X  ",
" X,,,y#aa;55ll@*tnnt*@ll55;aa#y,,,X ",
" X,,,y#;pp;50l@*tnnt*@l05;pp;#y,,,X ",
" #,,,*y#;uu;55@*tzzt*@55;uu;#y*,,,# ",
"X,,,***y#;yy;,@*<0w,*@,;yy;#y***,,,o",
"X,,***$$X+;;;,@@*,,*@@,;;;+X$$***,,o",
"X,,**$$XX +++XX@*,,*@XX+++ XX$$**,,o",
"X,*$$XX       @*6kk6*@       XX$$*,X",
"XXXXX          @****@          XXXXX"
};
